<svg id="visual" viewBox="0 0 900 600" width="900" height="600" xmlns="http://www.w3.org/2000/svg" xmlns:xlink="http://www.w3.org/1999/xlink" version="1.1"><path d="M0 365L129 382L257 413L386 367L514 405L643 417L771 445L900 394L900 601L771 601L643 601L514 601L386 601L257 601L129 601L0 601Z" fill="#cccccc"></path><path d="M0 421L129 435L257 458L386 446L514 434L643 432L771 437L900 439L900 601L771 601L643 601L514 601L386 601L257 601L129 601L0 601Z" fill="#d8d8d8"></path><path d="M0 493L129 500L257 505L386 477L514 454L643 500L771 506L900 497L900 601L771 601L643 601L514 601L386 601L257 601L129 601L0 601Z" fill="#e5e5e5"></path><path d="M0 522L129 513L257 492L386 503L514 483L643 535L771 493L900 533L900 601L771 601L643 601L514 601L386 601L257 601L129 601L0 601Z" fill="#f2f2f2"></path><path d="M0 570L129 534L257 556L386 535L514 534L643 570L771 565L900 562L900 601L771 601L643 601L514 601L386 601L257 601L129 601L0 601Z" fill="#ffffff"></path></svg>