<svg id="visual" viewBox="0 0 900 600" width="900" height="600" xmlns="http://www.w3.org/2000/svg" xmlns:xlink="http://www.w3.org/1999/xlink" version="1.1"><path d="M0 412L129 359L257 425L386 392L514 424L643 374L771 413L900 393L900 601L771 601L643 601L514 601L386 601L257 601L129 601L0 601Z" fill="#cccccc"></path><path d="M0 447L129 442L257 393L386 468L514 450L643 478L771 431L900 409L900 601L771 601L643 601L514 601L386 601L257 601L129 601L0 601Z" fill="#d8d8d8"></path><path d="M0 449L129 490L257 457L386 485L514 493L643 451L771 503L900 478L900 601L771 601L643 601L514 601L386 601L257 601L129 601L0 601Z" fill="#e5e5e5"></path><path d="M0 495L129 532L257 526L386 487L514 496L643 541L771 539L900 489L900 601L771 601L643 601L514 601L386 601L257 601L129 601L0 601Z" fill="#f2f2f2"></path><path d="M0 551L129 572L257 549L386 542L514 556L643 560L771 527L900 545L900 601L771 601L643 601L514 601L386 601L257 601L129 601L0 601Z" fill="#ffffff"></path></svg>