<svg id="visual" viewBox="0 0 900 600" width="900" height="600" xmlns="http://www.w3.org/2000/svg" xmlns:xlink="http://www.w3.org/1999/xlink" version="1.1"><path d="M0 360L129 380L257 438L386 426L514 425L643 441L771 371L900 445L900 601L771 601L643 601L514 601L386 601L257 601L129 601L0 601Z" fill="#cccccc"></path><path d="M0 420L129 470L257 398L386 443L514 393L643 470L771 439L900 448L900 601L771 601L643 601L514 601L386 601L257 601L129 601L0 601Z" fill="#d8d8d8"></path><path d="M0 484L129 482L257 510L386 459L514 454L643 451L771 471L900 496L900 601L771 601L643 601L514 601L386 601L257 601L129 601L0 601Z" fill="#e5e5e5"></path><path d="M0 536L129 523L257 527L386 537L514 511L643 509L771 484L900 518L900 601L771 601L643 601L514 601L386 601L257 601L129 601L0 601Z" fill="#f2f2f2"></path><path d="M0 532L129 537L257 546L386 542L514 532L643 549L771 532L900 531L900 601L771 601L643 601L514 601L386 601L257 601L129 601L0 601Z" fill="#ffffff"></path></svg>