<svg id="visual" viewBox="0 0 900 600" width="900" height="600" xmlns="http://www.w3.org/2000/svg" xmlns:xlink="http://www.w3.org/1999/xlink" version="1.1"><path d="M0 446L129 404L257 373L386 370L514 355L643 393L771 418L900 387L900 601L771 601L643 601L514 601L386 601L257 601L129 601L0 601Z" fill="#cccccc"></path><path d="M0 420L129 458L257 449L386 478L514 453L643 408L771 461L900 415L900 601L771 601L643 601L514 601L386 601L257 601L129 601L0 601Z" fill="#d8d8d8"></path><path d="M0 453L129 469L257 498L386 478L514 465L643 485L771 470L900 453L900 601L771 601L643 601L514 601L386 601L257 601L129 601L0 601Z" fill="#e5e5e5"></path><path d="M0 516L129 516L257 506L386 520L514 512L643 490L771 537L900 510L900 601L771 601L643 601L514 601L386 601L257 601L129 601L0 601Z" fill="#f2f2f2"></path><path d="M0 570L129 567L257 564L386 529L514 571L643 569L771 548L900 553L900 601L771 601L643 601L514 601L386 601L257 601L129 601L0 601Z" fill="#ffffff"></path></svg>